<?xml version="1.0" standalone="no"?>
<!DOCTYPE svg PUBLIC "-//W3C//DTD SVG 20010904//EN"
 "http://www.w3.org/TR/2001/REC-SVG-20010904/DTD/svg10.dtd">
<svg version="1.0" xmlns="http://www.w3.org/2000/svg"
 width="330.000000pt" height="163.000000pt" viewBox="0 0 330.000000 163.000000"
 preserveAspectRatio="xMidYMid meet">

<g transform="translate(0.000000,163.000000) scale(0.100000,-0.100000)"
fill="#000000" stroke="none">
<path d="M606 1575 c-94 -39 -162 -120 -180 -216 -6 -33 4 -112 19 -151 7 -17
-7 -18 -204 -18 l-211 0 0 -217 0 -218 112 -357 112 -358 1297 0 c1442 0 1356
-4 1439 67 65 56 93 113 98 202 3 51 -1 90 -11 119 l-15 42 109 0 109 0 0 360
0 360 -125 0 -125 0 7 28 c11 45 9 124 -6 175 -19 65 -94 147 -163 178 l-53
24 -1075 2 -1075 3 -59 -25z m994 -170 l0 -105 -135 0 -135 0 -2 -212 -3 -213
-112 -3 -113 -3 0 216 0 215 -151 0 -151 0 52 -57 c69 -76 83 -111 78 -190 -3
-51 -9 -69 -34 -100 -61 -77 -67 -78 -439 -78 l-330 0 -3 113 -3 112 262 0
261 0 -50 60 c-59 70 -76 114 -70 181 8 75 61 133 148 160 14 4 229 8 478 8
l452 1 0 -105z m553 -204 c54 -170 97 -314 97 -320 0 -7 -37 -11 -114 -11
l-113 0 -13 45 -13 45 -112 0 -112 0 -13 -45 -13 -45 -113 0 c-62 0 -115 3
-117 8 -2 4 39 148 91 320 l95 312 177 0 177 0 96 -309z m682 282 c81 -43 115
-98 115 -184 0 -67 -20 -110 -69 -149 -23 -19 -38 -37 -33 -42 4 -4 82 -9 172
-10 l165 -3 0 -110 0 -110 -205 0 c-113 0 -218 4 -234 8 -17 5 -67 45 -113 89
l-83 82 0 -93 0 -92 -127 3 -128 3 -3 305 c-1 168 0 311 3 318 4 11 54 13 252
10 232 -3 251 -4 288 -25z m-2426 -803 l27 -85 23 88 23 87 132 0 133 0 24
-80 c13 -44 27 -80 30 -80 3 0 16 36 28 80 l24 80 118 0 c84 0 119 -3 119 -12
0 -10 -52 -183 -151 -500 l-40 -128 -108 0 -107 0 -34 115 c-18 63 -36 115
-39 115 -3 0 -19 -44 -35 -98 -43 -144 -30 -132 -151 -132 l-103 0 -16 48
c-53 165 -176 570 -176 580 0 9 32 12 127 10 l126 -3 26 -85z m1149 73 c10
-19 192 -603 192 -616 0 -4 -51 -7 -114 -7 l-114 0 -14 43 -15 42 -110 3 -110
3 -13 -46 -13 -45 -119 0 c-92 0 -119 3 -116 12 3 7 47 151 98 321 l93 307
173 0 c155 0 174 -2 182 -17z m750 2 c60 -18 119 -66 138 -112 8 -18 14 -58
14 -90 0 -67 -19 -106 -74 -149 -20 -16 -36 -32 -36 -36 0 -5 81 -8 181 -8
l181 0 -48 53 c-56 62 -76 106 -76 168 0 56 20 98 68 137 54 45 101 52 328 52
l206 0 0 -105 0 -105 -162 -2 -163 -3 52 -56 c29 -30 59 -72 68 -92 44 -107
-16 -237 -123 -267 -51 -14 -545 -13 -597 1 -28 8 -63 34 -122 92 l-83 81 0
-92 0 -92 -125 0 -125 0 0 320 0 320 223 0 c172 0 235 -4 275 -15z"/>
<path d="M1862 1232 c-12 -38 -22 -74 -22 -80 0 -8 18 -12 50 -12 28 0 50 1
50 3 -1 9 -47 148 -51 152 -3 2 -15 -26 -27 -63z"/>
<path d="M2550 1290 l0 -40 80 0 c67 0 81 3 89 18 7 14 6 25 -5 40 -13 19 -25
22 -90 22 l-74 0 0 -40z"/>
<path d="M1360 488 c-12 -40 -24 -76 -27 -80 -2 -5 20 -8 51 -8 l54 0 -23 76
c-13 42 -26 78 -28 81 -3 3 -15 -28 -27 -69z"/>
<path d="M2060 550 l0 -41 81 3 c66 2 84 6 93 21 9 15 7 22 -13 38 -18 15 -39
19 -92 19 l-69 0 0 -40z"/>
<path d="M3100 180 c0 -5 6 -10 14 -10 10 0 16 -13 19 -37 l4 -38 1 38 c1 25
7 37 17 37 8 0 15 5 15 10 0 6 -16 10 -35 10 -19 0 -35 -4 -35 -10z"/>
<path d="M3241 168 c-4 -13 -11 -30 -14 -38 -3 -10 -9 -5 -17 18 -17 45 -30
40 -29 -10 1 -40 2 -41 9 -13 l7 30 7 -27 c10 -34 26 -36 34 -5 6 22 6 22 13
-3 5 -19 7 -14 8 23 1 51 -5 60 -18 25z"/>
</g>
</svg>
